<?xml version="1.0" encoding="utf-8"?>
<!-- Generator: Adobe Illustrator 24.3.0, SVG Export Plug-In . SVG Version: 6.00 Build 0)  -->
<svg version="1.1" id="Layer_1" xmlns="http://www.w3.org/2000/svg" xmlns:xlink="http://www.w3.org/1999/xlink" x="0px" y="0px"
	 viewBox="0 0 595.3 841.9" style="enable-background:new 0 0 595.3 841.9;" xml:space="preserve">
<style type="text/css">
	.st0{fill:#A09484;}
	.st1{fill:#FFEBCD;}
	.st2{fill:#AD9E8F;}
</style>
<path class="st0" d="M299.1,37.1C271,37.1,88,448.8,96.8,596.2s115.8,178.9,200.9,178.9s190.9-7,203.5-177.2S327.2,37.1,299.1,37.1z
	"/>
<path class="st1" d="M298.4,72.7c-25.8,0-193.5,383-185.4,518.5s106.5,164.6,184.8,164.6s175.6-6.5,187.2-163S324.2,72.7,298.4,72.7
	z"/>
<path class="st2" d="M272,140c0,0-121.8,350.5-119.5,430.7c2.4,80.2,63.7,128.1,63.7,128.1s-40.8-58.7-43.9-127.9S272,140,272,140z"
	/>
<path class="st2" d="M426,467c0,0,31.4,96.7,31.4,115.5c0,18.9-18.9,76.2-18.9,76.2s2.8-41.9,3.1-75.8C442.1,549.1,426,467,426,467z
	"/>
<path class="st2" d="M313.6,283c0,0,28.3,292.9,28.3,311.5c0,18.6-9.4,91.7-9.4,91.7s-4-70.8-7.1-102.2
	C322.2,552.6,313.6,283,313.6,283z"/>
<g>
</g>
<g>
</g>
<g>
</g>
<g>
</g>
<g>
</g>
<g>
</g>
</svg>
